<svg width="1024" height="1024" viewBox="0 0 1024 1024" fill="none" xmlns="http://www.w3.org/2000/svg">
<g clip-path="url(#clip0_9_2)">
<path d="M0 0C337.92 0 675.84 0 1024 0C1024 337.92 1024 675.84 1024 1024C686.08 1024 348.16 1024 0 1024C0 686.08 0 348.16 0 0Z" fill="#FCFCFC"/>
<path d="M483 179C492.818 186.225 498.064 194.818 503.16 205.629C503.555 206.465 503.95 207.301 504.357 208.162C508.144 216.229 511.735 224.377 515.284 232.551C521.9 247.778 528.641 262.944 535.5 278.062C535.893 278.929 536.286 279.796 536.691 280.688C538.278 284.187 539.865 287.685 541.453 291.183C552.846 316.278 564.104 341.43 575.205 366.655C584.053 386.754 592.976 406.82 602.063 426.812C602.364 427.477 602.666 428.142 602.977 428.826C607.259 438.245 611.61 447.631 616 457C616.33 457 616.66 457 617 457C617.12 456.163 617.24 455.325 617.364 454.463C619.549 439.341 621.808 424.232 624.632 409.215C624.989 407.309 625.335 405.402 625.68 403.494C628.101 390.94 631.988 380.049 640 370C640.572 369.241 641.145 368.481 641.734 367.699C651.258 355.917 666.949 347.45 682.01 345.777C698.376 344.855 713.077 348.894 726.188 359C736.078 368.22 741.825 382.952 742.569 396.205C742.854 408.241 740.515 419.992 738.425 431.79C735.812 446.591 733.982 461.425 732.391 476.367C732.051 479.529 731.687 482.686 731.312 485.844C728.816 507.684 729.959 529.065 732 550.875C733.632 568.335 734.756 585.451 734 603C733.956 604.069 733.912 605.137 733.867 606.238C731.11 664.886 703.866 720.107 661 760C632.281 785.32 598.521 801.815 561 809C560.313 809.133 559.625 809.266 558.917 809.403C546.134 811.822 533.681 812.528 520.688 812.438C519.274 812.432 519.274 812.432 517.831 812.427C503.891 812.355 490.486 811.842 477 808C476.096 807.748 475.193 807.496 474.262 807.236C445.533 799.042 419.039 786.182 396 767C395.004 766.189 394.007 765.378 392.98 764.543C380.752 754.502 369.737 743.485 360 731C359.175 729.992 358.35 728.984 357.5 727.945C337.055 702.845 321.048 673.858 305.444 645.595C303.546 642.184 301.588 638.811 299.625 635.438C297.37 631.525 295.281 627.582 293.318 623.515C285.21 606.73 275.145 590.924 264 576C262.204 573.565 260.415 571.126 258.625 568.688C258.169 568.068 257.713 567.448 257.243 566.81C252.234 559.99 247.37 553.069 242.507 546.144C240.543 543.35 238.572 540.562 236.6 537.774C231.757 530.924 226.935 524.06 222.125 517.188C221.541 516.353 220.956 515.518 220.354 514.657C217.385 510.413 214.419 506.167 211.457 501.918C210.284 500.237 209.111 498.556 207.938 496.875C207.363 496.051 206.789 495.227 206.198 494.378C203.327 490.27 200.422 486.193 197.441 482.164C187.056 468.122 176.398 452.48 179 434C181.937 418.999 187.12 408.855 200 400C208.427 394.978 216.455 392.607 226.25 392.625C227.085 392.625 227.921 392.625 228.782 392.625C235.449 392.748 241.006 393.987 247 397C247.754 397.374 248.508 397.748 249.285 398.133C249.851 398.419 250.417 398.705 251 399C244.468 387.122 237.551 375.49 230.551 363.883C229.955 362.893 229.359 361.903 228.745 360.884C227.609 359.006 226.464 357.132 225.31 355.265C216.001 340.101 213.625 325.276 217.25 307.875C218.612 302.862 220.176 298.371 223 294C223.764 292.817 223.764 292.817 224.543 291.609C231.539 281.883 243.127 274.087 254.84 271.332C269.303 269.812 285.068 269.455 297 279C295.842 275.105 294.336 271.488 292.625 267.812C285.415 252.154 282.248 237.776 288 221C293.541 207.042 302.665 197.38 316.23 190.941C329.787 185.461 345.592 187.056 359 192C382.833 202.773 393.435 228.422 405.393 250.095C407.699 254.263 410.035 258.414 412.375 262.562C413.091 263.835 413.807 265.107 414.523 266.379C415.011 267.244 415.498 268.109 416 269C413.596 259.815 410.733 250.812 407.785 241.789C407.441 240.727 407.097 239.665 406.742 238.57C406.431 237.619 406.121 236.668 405.8 235.688C401.83 222.354 403.15 208.332 409.543 196.031C417.346 183.032 427.881 174.832 442.492 170.687C457.544 167.737 470.228 171.14 483 179Z" fill="#FECD5F"/>
<path d="M483 179C492.818 186.225 498.064 194.818 503.16 205.629C503.555 206.465 503.95 207.301 504.357 208.162C508.144 216.229 511.735 224.377 515.284 232.551C521.9 247.778 528.641 262.944 535.5 278.062C535.893 278.929 536.286 279.796 536.691 280.688C538.278 284.187 539.865 287.685 541.453 291.183C552.846 316.278 564.104 341.43 575.205 366.655C584.053 386.754 592.976 406.82 602.063 426.812C602.364 427.477 602.666 428.142 602.977 428.826C607.259 438.245 611.61 447.631 616 457C616.33 457 616.66 457 617 457C617.12 456.163 617.24 455.325 617.364 454.463C619.549 439.341 621.808 424.232 624.632 409.215C624.989 407.309 625.335 405.402 625.68 403.494C628.101 390.94 631.988 380.049 640 370C640.572 369.241 641.145 368.481 641.734 367.699C651.258 355.917 666.949 347.45 682.01 345.777C698.376 344.855 713.077 348.894 726.188 359C736.078 368.22 741.825 382.952 742.569 396.205C742.854 408.241 740.515 419.992 738.425 431.79C735.812 446.591 733.982 461.425 732.391 476.367C732.051 479.529 731.687 482.686 731.312 485.844C728.816 507.684 729.959 529.065 732 550.875C733.632 568.335 734.756 585.451 734 603C733.956 604.069 733.912 605.137 733.867 606.238C731.11 664.886 703.866 720.107 661 760C632.281 785.32 598.521 801.815 561 809C560.313 809.133 559.625 809.266 558.917 809.403C546.134 811.822 533.681 812.528 520.688 812.438C519.274 812.432 519.274 812.432 517.831 812.427C503.891 812.355 490.486 811.842 477 808C476.096 807.748 475.193 807.496 474.262 807.236C445.533 799.042 419.039 786.182 396 767C395.004 766.189 394.007 765.378 392.98 764.543C380.752 754.502 369.737 743.485 360 731C359.175 729.992 358.35 728.984 357.5 727.945C337.055 702.845 321.048 673.858 305.444 645.595C303.546 642.184 301.588 638.811 299.625 635.438C297.37 631.525 295.281 627.582 293.318 623.515C285.21 606.73 275.145 590.924 264 576C262.204 573.565 260.415 571.126 258.625 568.688C258.169 568.068 257.713 567.448 257.243 566.81C252.234 559.99 247.37 553.069 242.507 546.144C240.543 543.35 238.572 540.562 236.6 537.774C231.757 530.924 226.935 524.06 222.125 517.188C221.541 516.353 220.956 515.518 220.354 514.657C217.385 510.413 214.419 506.167 211.457 501.918C210.284 500.237 209.111 498.556 207.938 496.875C207.363 496.051 206.789 495.227 206.198 494.378C203.327 490.27 200.422 486.193 197.441 482.164C187.056 468.122 176.398 452.48 179 434C181.937 418.999 187.12 408.855 200 400C208.427 394.978 216.455 392.607 226.25 392.625C227.085 392.625 227.921 392.625 228.782 392.625C235.449 392.748 241.006 393.987 247 397C247.754 397.374 248.508 397.748 249.285 398.133C249.851 398.419 250.417 398.705 251 399C244.468 387.122 237.551 375.49 230.551 363.883C229.955 362.893 229.359 361.903 228.745 360.884C227.609 359.006 226.464 357.132 225.31 355.265C216.001 340.101 213.625 325.276 217.25 307.875C218.612 302.862 220.176 298.371 223 294C223.764 292.817 223.764 292.817 224.543 291.609C231.539 281.883 243.127 274.087 254.84 271.332C269.303 269.812 285.068 269.455 297 279C295.842 275.105 294.336 271.488 292.625 267.812C285.415 252.154 282.248 237.776 288 221C293.541 207.042 302.665 197.38 316.23 190.941C329.787 185.461 345.592 187.056 359 192C382.833 202.773 393.435 228.422 405.393 250.095C407.699 254.263 410.035 258.414 412.375 262.562C413.091 263.835 413.807 265.107 414.523 266.379C415.011 267.244 415.498 268.109 416 269C413.596 259.815 410.733 250.812 407.785 241.789C407.441 240.727 407.097 239.665 406.742 238.57C406.431 237.619 406.121 236.668 405.8 235.688C401.83 222.354 403.15 208.332 409.543 196.031C417.346 183.032 427.881 174.832 442.492 170.687C457.544 167.737 470.228 171.14 483 179ZM432.063 202.812C426.263 210.184 424.754 217.595 425.686 226.979C426.689 233.433 429.298 239.505 431.66 245.556C432.944 248.855 434.203 252.162 435.455 255.473C441.952 272.644 448.628 289.736 455.588 306.724C461.655 321.542 467.579 336.416 473.512 351.288C482.282 373.274 491.1 395.241 500.274 417.062C501.098 419.023 501.919 420.985 502.74 422.947C503.276 424.224 503.812 425.501 504.348 426.777C504.812 427.883 505.276 428.989 505.754 430.129C506.499 431.846 507.283 433.548 508.143 435.211C510.15 439.398 509.576 444.506 509 449C507.063 452.25 507.063 452.25 504 454C500.838 454.675 498.118 454.908 495 454C490.112 450.042 487.164 444.832 483.938 439.5C483.37 438.571 482.803 437.643 482.219 436.686C473.087 421.654 464.579 406.31 456.286 390.803C451.891 382.602 447.357 374.489 442.754 366.403C439.099 359.972 435.525 353.503 432 347C427.989 339.604 423.906 332.254 419.75 324.938C414.801 316.217 409.908 307.466 405.063 298.688C404.56 297.778 404.56 297.778 404.048 296.849C400.359 290.16 396.696 283.457 393.082 276.727C392.767 276.14 392.452 275.554 392.128 274.95C390.644 272.185 389.165 269.419 387.692 266.649C384.717 261.082 381.606 255.642 378.326 250.249C376.55 247.237 375.057 244.161 373.563 241C367.769 229.172 360.208 217.694 347.449 212.684C339.845 210.561 331.423 209.975 324 213C316.881 217.117 310.641 223.111 308 231C307.396 233.904 307.396 233.904 307.125 237C306.943 238.516 306.943 238.516 306.758 240.062C307.416 250.762 312.314 260.276 317.313 269.562C317.922 270.716 318.532 271.869 319.16 273.057C320.769 276.1 322.392 279.135 324.019 282.168C325.311 284.58 326.595 286.996 327.88 289.412C331.892 296.957 335.939 304.482 340 312C340.534 312.989 341.067 313.977 341.617 314.996C347.607 326.079 353.715 337.088 359.934 348.044C364.814 356.647 369.615 365.294 374.409 373.945C378.441 381.216 382.517 388.459 386.625 395.688C391.01 403.409 395.29 411.181 399.5 419C403.755 426.9 408.077 434.755 412.5 442.562C413.028 443.497 413.555 444.431 414.099 445.393C416.92 450.375 419.776 455.334 422.672 460.273C423.271 461.305 423.869 462.337 424.486 463.4C425.63 465.37 426.784 467.333 427.951 469.289C431.042 474.638 432.945 478.769 433 485C431.032 488.796 429.557 490.629 426 493C423.547 493.406 423.547 493.406 420.75 493.5C419.381 493.577 419.381 493.577 417.984 493.656C409.31 491.749 404.959 482.906 400.477 475.958C399.568 474.535 398.659 473.111 397.75 471.688C396.806 470.226 395.86 468.764 394.914 467.304C392.651 463.806 390.4 460.302 388.152 456.795C386.201 453.755 384.232 450.727 382.265 447.698C381.016 445.775 379.773 443.849 378.531 441.922C375.534 437.273 372.516 432.637 369.5 428C367.333 424.667 365.166 421.333 363 418C362.531 417.278 362.062 416.557 361.579 415.813C347.83 394.653 334.395 373.299 321.056 351.878C309.217 332.818 309.217 332.818 297 314C295.925 312.38 295.925 312.38 294.828 310.727C288.781 301.984 283.168 296.897 272.66 294.469C264.47 293.026 256.576 293.971 249.539 298.629C243.115 303.911 238.661 309.78 237.598 318.176C237.32 327.618 239.004 335.176 244.172 343.09C244.796 344.054 245.42 345.018 246.063 346.012C246.702 346.998 247.341 347.984 248 349C250.409 352.805 252.798 356.621 255.188 360.438C255.838 361.477 256.489 362.516 257.159 363.586C261.249 370.137 265.25 376.733 269.188 383.375C273.375 390.423 277.776 397.281 282.36 404.076C291.453 417.568 300.078 431.352 308.399 445.331C319.828 464.49 331.947 483.231 344 502C346.622 506.085 349.242 510.17 351.86 514.257C352.918 515.907 353.978 517.557 355.037 519.207C355.673 520.199 356.309 521.192 356.965 522.215C357.528 523.093 358.091 523.97 358.672 524.875C361.177 528.882 361.642 532.322 361 537C358.015 542.662 358.015 542.662 354 544C351.695 544.273 351.695 544.273 349.125 544.375C348.282 544.424 347.439 544.473 346.57 544.523C340.267 543.24 336.06 535.39 332.313 530.5C331.693 529.698 331.074 528.897 330.436 528.071C327.73 524.565 325.036 521.052 322.355 517.527C317.133 510.677 311.741 504.001 306.244 497.369C302.12 492.386 298.089 487.341 294.114 482.239C290.093 477.09 285.972 472.027 281.84 466.967C278.299 462.622 274.819 458.235 271.375 453.812C266.099 447.049 260.588 440.506 255 434C254.027 432.84 254.027 432.84 253.035 431.656C246.477 423.924 240.036 417.042 229.59 415.688C221.636 415.294 215.493 417.903 209.188 422.625C204.192 427.307 202.149 432.69 201.844 439.477C202.345 451.18 206.724 458.02 213.75 467.062C221.551 477.277 228.879 487.782 236.173 498.361C238.756 502.092 241.375 505.798 244 509.5C249.361 517.071 254.662 524.682 259.951 532.303C263.071 536.798 266.197 541.289 269.359 545.754C292.717 578.768 314.761 612.676 334.25 648.125C339.609 657.86 345.167 667.442 350.938 676.938C351.285 677.51 351.632 678.083 351.989 678.673C358.502 689.4 365.272 699.961 372.813 710C373.567 711.006 373.567 711.006 374.336 712.033C378.443 717.431 382.858 722.436 387.527 727.352C389.299 729.249 390.964 731.138 392.605 733.141C395.754 736.9 399.232 739.877 403 743C403.513 743.431 404.026 743.862 404.555 744.306C424.112 760.664 445.778 773.84 470 782C471.038 782.378 472.075 782.755 473.145 783.145C514.262 797.238 564.765 789.601 603 771C618.896 763.047 632.662 752.656 646 741C646.847 740.277 647.694 739.554 648.566 738.809C653.507 734.537 657.836 730.025 662 725C662.664 724.224 663.328 723.448 664.012 722.648C686.576 695.831 702.87 664.665 708.688 629.875C708.902 628.604 709.116 627.333 709.337 626.023C710.964 615.982 711.908 606.162 712 596C712.014 595.075 712.027 594.149 712.042 593.196C712.607 574.858 712.607 574.858 710.514 556.713C702.324 513.473 711.128 464.961 716.816 421.944C718.657 407.616 720.015 394.031 713.375 380.75C707.579 374.038 699.579 369.835 690.785 368.719C679.226 368.231 669.233 373.488 660.738 381C647.983 394.217 646.306 412.485 643.495 429.787C643.115 432.124 642.729 434.461 642.342 436.797C641.322 442.957 640.306 449.118 639.303 455.28C638.67 459.168 638.023 463.053 637.375 466.938C637.193 468.071 637.012 469.205 636.825 470.373C633.238 491.707 633.238 491.707 627 497C624.471 498.264 622.575 498.239 619.75 498.312C618.817 498.35 617.883 498.387 616.922 498.426C613.008 497.855 611.028 496.533 608 494C606.54 491.718 605.418 489.689 604.313 487.25C603.981 486.554 603.65 485.859 603.309 485.142C602.187 482.77 601.093 480.386 600 478C599.19 476.256 598.381 474.513 597.57 472.77C595.216 467.681 592.894 462.578 590.578 457.472C589.222 454.489 587.861 451.508 586.497 448.529C574.011 421.258 561.795 393.861 549.962 366.301C544.203 352.888 538.177 339.62 532.03 326.381C526.498 314.466 521.064 302.514 515.75 290.5C515.422 289.758 515.093 289.015 514.755 288.25C514.428 287.512 514.102 286.774 513.765 286.013C513.113 284.539 512.461 283.064 511.809 281.59C511.49 280.869 511.171 280.149 510.843 279.407C506.976 270.673 503.04 261.97 499.093 253.272C496.187 246.868 493.311 240.452 490.484 234.012C489.62 232.052 488.755 230.092 487.89 228.132C487.095 226.324 486.31 224.512 485.525 222.699C480.457 211.229 475.369 200.597 463.707 194.875C452.098 191.122 440.354 194.073 432.063 202.812Z" fill="#394550"/>
<path d="M687.5 208.875C688.452 209.279 689.404 209.683 690.385 210.1C709.574 218.432 726.015 229.64 742 243C742.861 243.672 743.722 244.343 744.609 245.035C746.728 246.776 748.43 248.471 750.187 250.562C752.976 253.84 755.866 256.989 758.812 260.125C769.197 271.578 776.862 284.344 784 298C784.353 298.657 784.706 299.315 785.07 299.992C796.306 321.077 808.928 353.62 805 378C803.661 382.388 801.703 384.589 797.687 386.937C792.311 388.487 788.836 388.918 783.75 386.375C779.148 382.401 777.717 377.805 776.789 371.922C776.599 370.77 776.409 369.618 776.214 368.432C776.02 367.217 775.825 366.002 775.625 364.75C769.861 331.046 757.391 302.493 735.375 276.187C734.944 275.672 734.513 275.157 734.069 274.626C717.234 254.863 694.076 241.313 669.977 232.255C664.314 230.015 660.13 227.377 657 222C655.905 217.645 656.691 214.557 658.875 210.625C666.419 201.305 677.704 204.6 687.5 208.875Z" fill="#39444E"/>
<path d="M603 485C603.872 486.385 604.722 487.783 605.563 489.188C606.038 489.965 606.514 490.742 607.004 491.543C608 494 608 494 608.086 496.57C606.462 500.204 603.515 501.132 600.063 502.688C592.649 506.308 587.521 510.847 582 517C580.339 518.672 578.672 520.338 577 522C550.738 548.693 541.749 580.941 541.875 617.562C541.871 618.691 541.867 619.82 541.863 620.982C541.872 628.369 542.268 635.65 543 643C543.66 643 544.32 643 545 643C545 645.31 545 647.62 545 650C541.352 652.335 538.258 652.38 534 652C531.855 650.863 531.855 650.863 530 649C529.207 646.117 529.207 646.117 528.813 642.875C528.636 639.121 528.636 639.121 527 636C519.417 601.836 523.432 567.468 541.899 537.701C544.612 533.509 547.687 529.728 551 526C551.833 525.047 552.665 524.095 553.523 523.113C563.935 511.37 575.103 501.872 588.163 493.234C591.537 490.968 594.807 488.552 598.082 486.145C600 485 600 485 603 485Z" fill="#EDAA45"/>
<path d="M651.621 269.023C666.893 274.278 682.071 281.985 694 293C694.495 294.485 694.495 294.485 695 296C695.619 296.289 696.238 296.577 696.875 296.875C699.823 298.436 700.651 299.966 702 303C702.4 306.734 702.292 309.244 700.938 312.75C698.259 315.861 695.917 316.825 692 318C686.074 317.791 682.833 315.78 678.5 312C667.668 303.097 656.787 296.787 643.433 292.382C638.097 290.593 633.688 288.761 630.625 283.75C629.766 279.971 629.777 276.701 631 273C637.181 266.819 643.449 266.714 651.621 269.023Z" fill="#38444E"/>
<path d="M553 785C553.66 785.66 554.32 786.32 555 787C543.232 788.854 531.576 789.199 519.688 789.188C518.951 789.188 518.215 789.189 517.457 789.19C503.995 789.188 503.995 789.188 499 788C499 787.67 499 787.34 499 787C499.678 787.011 500.355 787.021 501.053 787.032C514.696 787.213 528.076 786.984 541.637 785.438C545.448 785.026 549.163 784.764 553 785Z" fill="#F9D851"/>
<path d="M710 559C710.33 559 710.66 559 711 559C712.197 571.332 712.104 583.624 712 596C710.52 594.888 710.52 594.888 709 593C708.644 590.184 708.644 590.184 708.672 586.793C708.677 585.566 708.682 584.34 708.687 583.076C708.708 581.793 708.729 580.51 708.75 579.188C708.758 577.28 708.758 577.28 708.766 575.334C708.812 569.765 708.967 564.485 710 559Z" fill="#D3AF55"/>
<path d="M411 252C413.004 255.006 414.031 257.592 415.188 261C415.552 262.052 415.917 263.104 416.293 264.188C417 267 417 267 416 270C414.828 268.045 413.663 266.086 412.5 264.125C411.85 263.034 411.201 261.944 410.531 260.82C409 258 409 258 409 256C409.66 256 410.32 256 411 256C411 254.68 411 253.36 411 252Z" fill="#EAECED"/>
<path d="M706 624C706.99 624.33 707.98 624.66 709 625C708.718 627.105 708.424 629.209 708.125 631.312C707.963 632.484 707.8 633.656 707.633 634.863C707 638 707 638 705 641C703.675 634.904 704.534 630.022 706 624Z" fill="#F7D156"/>
<path d="M580 779C579 781 579 781 575.797 782.07C574.45 782.43 573.101 782.782 571.75 783.125C570.746 783.398 570.746 783.398 569.723 783.676C566.074 784.629 562.772 785.219 559 785C562.825 782.609 566.597 782.44 571 782C571 781.34 571 780.68 571 780C573.957 778.522 576.742 778.94 580 779Z" fill="#F8DA50"/>
<path d="M553 785C553.66 785.66 554.32 786.32 555 787C542.33 788.333 542.33 788.333 537 787C537 786.67 537 786.34 537 786C542.337 785.322 547.612 784.67 553 785Z" fill="#F5CC50"/>
<path d="M606 493C606.66 493.33 607.32 493.66 608 494C607.777 496.32 607.777 496.32 607 499C605.004 500.617 605.004 500.617 602.562 501.875C601.759 502.306 600.956 502.736 600.129 503.18C599.426 503.45 598.724 503.721 598 504C597.34 503.67 596.68 503.34 596 503C597.264 501.991 598.536 500.993 599.812 500C600.874 499.165 600.874 499.165 601.957 498.312C604 497 604 497 607 497C606.67 495.68 606.34 494.36 606 493Z" fill="#F7BA4F"/>
<path d="M697 663C697.66 663 698.32 663 699 663C698.01 665.97 697.02 668.94 696 672C695.34 672 694.68 672 694 672C694.557 668.656 695.352 665.967 697 663Z" fill="#F2CC52"/>
<path d="M659.563 723.938C660.769 723.968 660.769 723.968 662 724C660.358 726.021 658.691 728.02 657 730C656.67 730 656.34 730 656 730C655.957 728.334 655.959 726.666 656 725C657 724 657 724 659.563 723.938Z" fill="#F3CE54"/>
<path d="M605 769C602.614 770.892 600.928 772.024 598 773C598.375 771.063 598.375 771.063 599 769C601.491 767.755 602.411 768.223 605 769Z" fill="#ECC655"/>
</g>
<defs>
<clipPath id="clip0_9_2">
<rect width="1024" height="1024" rx="180" fill="white"/>
</clipPath>
</defs>
</svg>
